<svg width="12" height="13" viewBox="0 0 12 13" fill="none" xmlns="http://www.w3.org/2000/svg">
<path fill-rule="evenodd" clip-rule="evenodd" d="M1.618 0C1.34299 0 1.07258 0.0700986 0.832293 0.203588C0.587613 0.328316 0.381086 0.516848 0.234616 0.749341C0.0860367 0.985175 0.00494121 1.25723 0.000138567 1.53592L6.88631e-05 11.4561L0.000138567 11.4641C0.00494121 11.7428 0.0860367 12.0148 0.234616 12.2506C0.381086 12.4832 0.587613 12.6717 0.832293 12.7965C1.07258 12.9299 1.34299 13 1.618 13C1.89691 13 2.17108 12.9279 2.41391 12.7907C2.41926 12.7877 2.42454 12.7846 2.42976 12.7813L10.4541 7.8183C10.6974 7.69567 10.9028 7.50883 11.0481 7.27778C11.1979 7.0392 11.2775 6.76316 11.2775 6.4814C11.2775 6.19965 11.1979 5.92361 11.0481 5.68503C10.9027 5.45374 10.697 5.26675 10.4534 5.14412L2.42844 0.217863C2.42365 0.214924 2.4188 0.212072 2.41391 0.209309C2.17108 0.0721022 1.89691 0 1.618 0Z" fill="white"/>
</svg>
